# xmcd
#
# Track frame offsets: 
#        183
#        13803
#        25025
#        36213
#        50285
#        61908
#        73310
#        85453
#        98600
#        112178
#        126210
#        136363
#        149145
#        160328
#        170908
#        183840
#        202688
#        219658
#        234000
#        244100
#
# Disc length: 3392 seconds
#
# Revision: 7
# Processed by: cddbd v1.5.2PL0 Copyright (c) Steve Scherf et al.
# Submitted via: ExactAudioCopyFreeDBPlugin 1.0
#
DISCID=210d3e14
DTITLE=Ben E. King - The Ultimate Collection - Stand By Me
DYEAR=1987
DGENRE=R&B
TTITLE0=Stand By Me
TTITLE1=Save The Last Dance For Me
TTITLE2=I (Who Have Nothing)
TTITLE3=That's When It Hurts
TTITLE4=I Could Have Danced All Night
TTITLE5=First Taste Of Love
TTITLE6=Dream Lover
TTITLE7=Moon River
TTITLE8=Spanish Harlem
TTITLE9=Amor
TTITLE10=I Count The Tears
TTITLE11=Don't Play That Song
TTITLE12=This Magic Moment
TTITLE13=Young Boy Blues
TTITLE14=It's All In The Game
TTITLE15=Supernatural Thing (Part 1)
TTITLE16=On The Street Where You Live
TTITLE17=Will You Still Love Me Tomorrow
TTITLE18=Show Me The Way
TTITLE19=Here Comes The Night
EXTD=Stand By Me - The Best Of Ben E. King And The Drifters
EXTT0=
EXTT1=
EXTT2=
EXTT3=
EXTT4=
EXTT5=
EXTT6=
EXTT7=
EXTT8=
EXTT9=
EXTT10=
EXTT11=
EXTT12=
EXTT13=
EXTT14=
EXTT15=
EXTT16=
EXTT17=
EXTT18=
EXTT19=
PLAYORDER=
